<svg width="690" height="416" viewBox="0 0 690 416" fill="none" xmlns="http://www.w3.org/2000/svg">
<rect x="264" y="148" width="203" height="138" rx="10" fill="#C4C4C4"/>
<rect x="366" width="213" height="138" rx="10" fill="#C4C4C4"/>
<rect x="143" width="213" height="138" rx="10" fill="#C4C4C4"/>
<path d="M0 0H123C128.523 0 133 4.47715 133 10V128C133 133.523 128.523 138 123 138H0V0Z" fill="#C4C4C4"/>
<path d="M0 148H19C24.5228 148 29 152.477 29 158V276C29 281.523 24.5228 286 19 286H0V148Z" fill="#C4C4C4"/>
<path d="M213 148H49C43.4772 148 39 152.477 39 158V276C39 281.523 43.4772 286 49 286H213V148Z" fill="#C4C4C4"/>
<path d="M147 306C147 300.477 151.477 296 157 296H350C355.523 296 360 300.477 360 306V415H147V306Z" fill="#C4C4C4"/>
<path d="M0 296H40C45.5228 296 50 300.477 50 306V415H0V296Z" fill="#C4C4C4"/>
<path d="M370 306C370 300.477 374.477 296 380 296H573C578.523 296 583 300.477 583 306V415H370V306Z" fill="#C4C4C4"/>
<path d="M593 306C593 300.477 597.477 296 603 296H680C685.523 296 690 300.477 690 306V415H593V306Z" fill="#C4C4C4"/>
<rect x="589" width="101" height="138" rx="10" fill="#C4C4C4"/>
<rect x="477" y="148" width="213" height="138" rx="10" fill="#C4C4C4"/>
<g filter="url(#filter0_d_4084_330)">
<path d="M60 76C60 56.67 75.67 41 95 41H240C259.33 41 275 56.67 275 76V415H60V76Z" fill="#C4C4C4"/>
<path d="M95 41.5H240C259.054 41.5 274.5 56.9462 274.5 76V414.5H60.5V76C60.5 56.9462 75.9462 41.5 95 41.5Z" stroke="white"/>
</g>
<defs>
<filter id="filter0_d_4084_330" x="59.2" y="28.2" width="228.6" height="387.6" filterUnits="userSpaceOnUse" color-interpolation-filters="sRGB">
<feFlood flood-opacity="0" result="BackgroundImageFix"/>
<feColorMatrix in="SourceAlpha" type="matrix" values="0 0 0 0 0 0 0 0 0 0 0 0 0 0 0 0 0 0 127 0" result="hardAlpha"/>
<feOffset dx="6" dy="-6"/>
<feGaussianBlur stdDeviation="3.4"/>
<feComposite in2="hardAlpha" operator="out"/>
<feColorMatrix type="matrix" values="0 0 0 0 0 0 0 0 0 0 0 0 0 0 0 0 0 0 0.24 0"/>
<feBlend mode="normal" in2="BackgroundImageFix" result="effect1_dropShadow_4084_330"/>
<feBlend mode="normal" in="SourceGraphic" in2="effect1_dropShadow_4084_330" result="shape"/>
</filter>
</defs>
</svg>
