<svg width="722" height="250" viewBox="0 0 860 260" fill="none" xmlns="http://www.w3.org/2000/svg">

  <!-- ICON -->
  <g transform="translate(30,40)">
    
    <!-- Editor frame -->
    <rect x="0" y="0" width="160" height="160" rx="24" fill="url(#frameGrad)"/>

    <!-- Inner canvas -->
    <rect x="18" y="18" width="124" height="124" rx="16" fill="#0A1025"/>

    <!-- Layers -->
    <rect x="38" y="40" width="60" height="38" rx="8" fill="#00E5FF"/>
    <rect x="58" y="64" width="60" height="38" rx="8" fill="#7C4DFF"/>

    <!-- Video wave -->
    <path d="M38 108 C52 88, 68 128, 84 108 C100 88, 116 128, 132 108"
          stroke="#FFB300" stroke-width="4" fill="none"/>

    <!-- Play icon -->
    <circle cx="110" cy="46" r="14" fill="#FF2D7A"/>
    <polygon points="105,39 105,53 118,46" fill="white"/>

  </g>

  <!-- TEXT -->
  <text x="230" y="150"
        font-size="74"
        font-weight="800"
        font-family="Inter, Poppins, Arial, sans-serif"
        fill="url(#textGrad)">
    PowerAI
  </text>

  <text x="500" y="150"
        font-size="74"
        font-weight="800"
        font-family="Inter, Poppins, Arial, sans-serif"
        fill="#FFC107">
    Tool
  </text>

  <text x="232" y="190"
        font-size="18"
        font-weight="500"
        font-family="Inter, Arial, sans-serif"
        fill="#9FB3FF">
    AI Image & Video Generator • Editor
  </text>

  <!-- GRADIENTS -->
  <defs>

    <linearGradient id="frameGrad" x1="0" y1="0" x2="1" y2="1">
      <stop offset="0%" stop-color="#00E5FF"/>
      <stop offset="100%" stop-color="#7C4DFF"/>
    </linearGradient>

    <linearGradient id="textGrad" x1="0" y1="0" x2="1" y2="0">
      <stop offset="0%" stop-color="#00E5FF"/>
      <stop offset="100%" stop-color="#7C4DFF"/>
    </linearGradient>

  </defs>

</svg>


