<svg width="488" height="119" viewBox="0 0 488 119" fill="none" xmlns="http://www.w3.org/2000/svg">
<path d="M487.447 90.8688V117.769H404.123V0H486.299V26.8998H435.124V43.7942H481.542V70.694H435.124V90.8688H487.447Z" fill="white"/>
<path d="M351.267 117.769L304.356 44.2863V117.769H275.98V0H309.277L352.743 68.0696V0H381.119V117.769H351.267Z" fill="white"/>
<path d="M253 117.769H222V0H253V117.769Z" fill="white"/>
<path d="M45.9265 117.769H0V0H45.9265C83.1597 0 106.615 23.9474 106.615 58.2282C106.615 92.5091 82.3396 117.769 45.9265 117.769ZM31.0004 26.7358V91.0329H44.1222C64.6251 91.0329 74.7946 80.3713 74.7946 58.2282C74.7946 37.3973 64.2971 26.7358 44.1222 26.7358H31.0004Z" fill="white"/>
<path d="M119.208 0.165229V35.5132H164.971L115 96.8525L134.988 118.165C137.969 111.061 152.347 100.907 169.179 110.888C186.012 120.868 199.337 113.487 206 109.328V65.1432L192.324 72.9406C180.12 65.4551 170.757 71.2078 164.971 72.9406L206 24.5969V0.165222L119.208 0.165229Z" fill="white"/>
</svg>
