<svg width="774" height="223" viewBox="0 0 774 223" fill="none" xmlns="http://www.w3.org/2000/svg">
<path d="M65.0115 174L39.6652 105.861V174H11.521V55.8272H48.2237L78.0138 135.981L107.639 55.8272H144.342V174H116.198V105.038L90.6869 174H65.0115ZM228.983 129.562V174H197.876V129.562L156.565 55.8272H190.141L214.499 101.088L239.352 55.8272H270.623L228.983 129.562Z" fill="black"/>
<path d="M773.447 146.869V173.769H690.123V56H772.299V82.8998H721.124V99.7942H767.542V126.694H721.124V146.869H773.447Z" fill="black"/>
<path d="M637.267 173.769L590.356 100.286V173.769H561.98V56H595.277L638.743 124.07V56H667.119V173.769H637.267Z" fill="black"/>
<path d="M539 173.769H508V56H539V173.769Z" fill="black"/>
<path d="M331.926 173.769H286V56H331.926C369.16 56 392.615 79.9474 392.615 114.228C392.615 148.509 368.34 173.769 331.926 173.769ZM317 82.7358V147.033H330.122C350.625 147.033 360.795 136.371 360.795 114.228C360.795 93.3973 350.297 82.7358 330.122 82.7358H317Z" fill="black"/>
<path d="M405.208 56.1652V91.5132H450.971L401 152.852L420.988 174.165C423.969 167.061 438.347 156.907 455.179 166.888C472.012 176.868 485.337 169.487 492 165.328V121.143L478.324 128.941C466.12 121.455 456.757 127.208 450.971 128.941L492 80.5969V56.1652L405.208 56.1652Z" fill="black"/>
</svg>
